# xmcd CD database file
#
# Track frame offsets:
#	150
#	23148
#	43622
#	63746
#	85572
#	104955
#	130278
#	164784
#	184045
#	196059
#	216178
#
# Disc length: 2890 seconds
#
# Revision: 0
# Processed by: cddbd v1.5PL3 Copyright (c) Steve Scherf et al.
# Submitted via: CDex 1.51
#
DISCID=a00b480b
DTITLE=Charles Brown - A Life In The Blues
DYEAR=2003
DGENRE=Blues
TTITLE0=I Stepped In Quicksand
TTITLE1=Drifting Blues
TTITLE2=I Cried Last Night
TTITLE3=All My Life
TTITLE4=Seven Long Days
TTITLE5=Black Night
TTITLE6=When The Sun Comes Out
TTITLE7=Merry Christmas Baby
TTITLE8=Please Come Home For Christmas
TTITLE9=Joyce's Boogie
TTITLE10=Data
EXTD=YEAR: 2003
EXTT0=
EXTT1=
EXTT2=
EXTT3=
EXTT4=
EXTT5=
EXTT6=
EXTT7=
EXTT8=
EXTT9=
EXTT10=
PLAYORDER=
